<svg width="1920" height="164" viewBox="0 0 1920 164" fill="none" xmlns="http://www.w3.org/2000/svg">
<g clip-path="url(#clip0_589_857)">
<rect width="1920" height="164" fill="#F1F7FF"/>
<g clip-path="url(#clip1_589_857)">
<mask id="mask0_589_857" style="mask-type:luminance" maskUnits="userSpaceOnUse" x="650" y="51" width="52" height="61">
<path d="M701.895 51H650V112H701.895V51Z" fill="white"/>
</mask>
<g mask="url(#mask0_589_857)">
<path d="M650.252 89.018C652.02 102.091 667.578 110.342 680.969 110.351L676.73 95.9695C670.911 95.9695 666.19 91.3311 666.176 85.6005L650.252 89.018Z" fill="url(#paint0_linear_589_857)"/>
<path d="M676.795 77.0185L676.124 76.8825C676.529 76.8871 691.015 65.7151 691.324 65.4565C691.633 65.1979 691.263 76.0062 691.324 75.6115C692.054 70.4694 696.522 66.6447 701.794 66.6491L698.315 51.0001C685.711 52.622 676.01 62.7605 675.115 75.2477C675.098 75.4746 675.13 75.7023 675.207 75.9165C675.284 76.1311 675.405 76.3274 675.563 76.4936C675.721 76.6598 675.912 76.7922 676.124 76.8825C676.335 76.9726 676.564 77.019 676.795 77.0185ZM699.03 77.4158L680.543 93.0649C680.364 93.2201 680.221 93.411 680.123 93.6251C680.024 93.8391 679.973 94.0714 679.973 94.3061C679.973 94.5411 680.024 94.7732 680.123 94.9871C680.221 95.2011 680.364 95.3922 680.543 95.5476L699.03 111.221C699.274 111.424 699.572 111.555 699.889 111.597C700.205 111.639 700.528 111.591 700.818 111.459C701.109 111.327 701.355 111.116 701.527 110.851C701.7 110.587 701.793 110.278 701.794 109.964V78.6737C701.793 78.3588 701.7 78.0508 701.528 77.7857C701.355 77.5208 701.109 77.3099 700.818 77.1779C700.528 77.0458 700.206 76.9981 699.889 77.0403C699.572 77.0823 699.274 77.2126 699.03 77.4158Z" fill="#2684FF"/>
<path d="M650 85.3518V85.6003H666.176C666.189 79.8693 674.313 57.5946 680.132 57.5946C666.948 59.2865 650.16 72.2582 650 85.3518Z" fill="url(#paint1_linear_589_857)"/>
</g>
<path d="M747.135 82.8847C747.135 84.9099 746.878 86.7521 746.365 88.4113C745.877 90.0461 745.12 91.4613 744.094 92.6569C743.093 93.8525 741.811 94.7675 740.248 95.4019C738.685 96.0363 736.829 96.3535 734.68 96.3535C732.555 96.3535 730.699 96.0363 729.112 95.4019C727.549 94.7675 726.255 93.8525 725.229 92.6569C724.228 91.4613 723.471 90.0461 722.958 88.4113C722.469 86.7521 722.225 84.8977 722.225 82.8481C722.225 80.1397 722.665 77.7851 723.544 75.7843C724.448 73.7835 725.815 72.2341 727.647 71.1361C729.503 70.0137 731.859 69.4525 734.717 69.4525C737.549 69.4525 739.882 70.0137 741.713 71.1361C743.569 72.2341 744.937 73.7957 745.816 75.8209C746.695 77.8217 747.135 80.1763 747.135 82.8847ZM728.123 82.8847C728.123 84.6903 728.343 86.2519 728.782 87.5695C729.246 88.8871 729.967 89.8997 730.944 90.6073C731.92 91.2905 733.166 91.6321 734.68 91.6321C736.243 91.6321 737.501 91.2905 738.453 90.6073C739.43 89.8997 740.138 88.8871 740.578 87.5695C741.017 86.2519 741.237 84.6903 741.237 82.8847C741.237 80.1519 740.736 78.0047 739.735 76.4431C738.734 74.8815 737.061 74.1007 734.717 74.1007C733.178 74.1007 731.92 74.4545 730.944 75.1621C729.967 75.8697 729.246 76.8823 728.782 78.1999C728.343 79.4931 728.123 81.0547 728.123 82.8847ZM775.342 75.6379C777.637 75.6379 779.371 76.2113 780.543 77.3581C781.716 78.5049 782.302 80.3715 782.302 82.9579V95.9875H776.807V84.3487C776.807 82.8115 776.551 81.7135 776.038 81.0547C775.525 80.3715 774.756 80.0299 773.73 80.0299C772.313 80.0299 771.312 80.5545 770.726 81.6037C770.14 82.6285 769.847 84.0925 769.847 85.9957V95.9875H764.316V84.3487C764.316 83.3483 764.206 82.5309 763.986 81.8965C763.766 81.2621 763.436 80.7985 762.997 80.5057C762.557 80.1885 761.996 80.0299 761.312 80.0299C760.311 80.0299 759.517 80.2861 758.931 80.7985C758.369 81.3109 757.966 82.0551 757.722 83.0311C757.502 84.0071 757.392 85.2027 757.392 86.6179V95.9875H751.861V76.0039H756.11L756.916 78.5659H757.099C757.49 77.9559 757.966 77.4313 758.528 76.9921C759.114 76.5529 759.785 76.2235 760.543 76.0039C761.3 75.7599 762.142 75.6379 763.07 75.6379C764.56 75.6379 765.793 75.8941 766.77 76.4065C767.771 76.9189 768.553 77.6631 769.114 78.6391H769.297C769.957 77.6387 770.812 76.8945 771.862 76.4065C772.912 75.8941 774.072 75.6379 775.342 75.6379ZM806.025 85.9591C806.025 87.6183 805.793 89.0945 805.329 90.3877C804.889 91.6809 804.242 92.7667 803.387 93.6451C802.557 94.5235 801.543 95.1945 800.347 95.6581C799.15 96.1217 797.795 96.3535 796.281 96.3535C794.864 96.3535 793.57 96.1217 792.398 95.6581C791.225 95.1945 790.212 94.5235 789.357 93.6451C788.502 92.7667 787.831 91.6809 787.342 90.3877C786.854 89.0945 786.61 87.6183 786.61 85.9591C786.61 83.7387 787.001 81.8599 787.782 80.3227C788.564 78.7855 789.687 77.6265 791.152 76.8457C792.617 76.0405 794.364 75.6379 796.39 75.6379C798.271 75.6379 799.932 76.0405 801.372 76.8457C802.813 77.6265 803.949 78.7855 804.779 80.3227C805.609 81.8599 806.025 83.7387 806.025 85.9591ZM792.251 85.9591C792.251 87.2523 792.385 88.3625 792.654 89.2897C792.947 90.2169 793.387 90.9245 793.973 91.4125C794.583 91.9005 795.377 92.1445 796.354 92.1445C797.306 92.1445 798.076 91.9005 798.662 91.4125C799.272 90.9245 799.712 90.2169 799.98 89.2897C800.249 88.3625 800.383 87.2523 800.383 85.9591C800.383 84.6415 800.237 83.5313 799.944 82.6285C799.675 81.7257 799.248 81.0425 798.662 80.5789C798.076 80.0909 797.294 79.8469 796.317 79.8469C794.901 79.8469 793.863 80.3715 793.204 81.4207C792.569 82.4699 792.251 83.9827 792.251 85.9591ZM833.938 75.6379C836.233 75.6379 837.967 76.2113 839.14 77.3581C840.312 78.5049 840.898 80.3715 840.898 82.9579V95.9875H835.403V84.3487C835.403 82.8115 835.147 81.7135 834.634 81.0547C834.121 80.3715 833.352 80.0299 832.326 80.0299C830.91 80.0299 829.908 80.5545 829.322 81.6037C828.736 82.6285 828.443 84.0925 828.443 85.9957V95.9875H822.912V84.3487C822.912 83.3483 822.802 82.5309 822.582 81.8965C822.362 81.2621 822.033 80.7985 821.593 80.5057C821.153 80.1885 820.592 80.0299 819.908 80.0299C818.907 80.0299 818.113 80.2861 817.527 80.7985C816.965 81.3109 816.562 82.0551 816.318 83.0311C816.098 84.0071 815.988 85.2027 815.988 86.6179V95.9875H810.457V76.0039H814.706L815.512 78.5659H815.695C816.086 77.9559 816.562 77.4313 817.124 76.9921C817.71 76.5529 818.382 76.2235 819.139 76.0039C819.896 75.7599 820.738 75.6379 821.666 75.6379C823.156 75.6379 824.389 75.8941 825.366 76.4065C826.367 76.9189 827.149 77.6631 827.71 78.6391H827.894C828.553 77.6387 829.408 76.8945 830.458 76.4065C831.508 75.8941 832.668 75.6379 833.938 75.6379ZM854.694 75.6379C856.55 75.6379 858.15 75.9917 859.493 76.6993C860.836 77.3825 861.862 78.4073 862.57 79.7737C863.303 81.1157 863.669 82.7627 863.669 84.7147V87.3865H850.811C850.86 88.8993 851.324 90.0949 852.203 90.9733C853.082 91.8273 854.34 92.2543 855.976 92.2543C857.222 92.2543 858.357 92.1323 859.383 91.8883C860.409 91.6443 861.459 91.2783 862.533 90.7903V94.9261C861.557 95.4141 860.519 95.7679 859.42 95.9875C858.345 96.2315 857.002 96.3535 855.39 96.3535C853.412 96.3535 851.654 95.9875 850.115 95.2555C848.601 94.5235 847.405 93.4011 846.525 91.8883C845.646 90.3511 845.207 88.4357 845.207 86.1421C845.207 83.7997 845.597 81.8599 846.379 80.3227C847.185 78.7611 848.296 77.5899 849.712 76.8091C851.153 76.0283 852.814 75.6379 854.694 75.6379ZM854.841 79.5541C853.742 79.5541 852.85 79.9079 852.167 80.6155C851.483 81.2987 851.08 82.3235 850.958 83.6899H858.504C858.504 82.8847 858.37 82.1771 858.101 81.5671C857.832 80.9571 857.417 80.4691 856.855 80.1031C856.318 79.7371 855.647 79.5541 854.841 79.5541ZM886.478 85.9591C886.478 87.6183 886.246 89.0945 885.782 90.3877C885.343 91.6809 884.695 92.7667 883.841 93.6451C883.01 94.5235 881.997 95.1945 880.8 95.6581C879.604 96.1217 878.248 96.3535 876.734 96.3535C875.318 96.3535 874.023 96.1217 872.851 95.6581C871.679 95.1945 870.666 94.5235 869.811 93.6451C868.956 92.7667 868.285 91.6809 867.796 90.3877C867.308 89.0945 867.064 87.6183 867.064 85.9591C867.064 83.7387 867.454 81.8599 868.236 80.3227C869.017 78.7855 870.141 77.6265 871.606 76.8457C873.071 76.0405 874.817 75.6379 876.844 75.6379C878.725 75.6379 880.385 76.0405 881.826 76.8457C883.267 77.6265 884.402 78.7855 885.233 80.3227C886.063 81.8599 886.478 83.7387 886.478 85.9591ZM872.705 85.9591C872.705 87.2523 872.839 88.3625 873.108 89.2897C873.401 90.2169 873.84 90.9245 874.426 91.4125C875.037 91.9005 875.831 92.1445 876.808 92.1445C877.76 92.1445 878.529 91.9005 879.115 91.4125C879.726 90.9245 880.165 90.2169 880.434 89.2897C880.703 88.3625 880.837 87.2523 880.837 85.9591C880.837 84.6415 880.69 83.5313 880.397 82.6285C880.129 81.7257 879.701 81.0425 879.115 80.5789C878.529 80.0909 877.748 79.8469 876.771 79.8469C875.354 79.8469 874.317 80.3715 873.657 81.4207C873.022 82.4699 872.705 83.9827 872.705 85.9591ZM896.552 80.6155C896.552 81.3719 896.515 82.1283 896.442 82.8847C896.393 83.6167 896.332 84.3609 896.259 85.1173H896.332C896.576 84.7757 896.821 84.4341 897.065 84.0925C897.333 83.7509 897.602 83.4093 897.871 83.0677C898.139 82.7261 898.42 82.3967 898.713 82.0795L904.318 76.0039H910.472L902.523 84.6781L910.948 95.9875H904.647L898.896 87.8989L896.552 89.7655V95.9875H891.094V68.1715H896.552V80.6155Z" fill="url(#paint2_linear_589_857)"/>
</g>
<path d="M940.195 80.8477H936.328V79.0312H940.195V80.8477ZM945.844 91.9805H943.699V70.9805H945.844V91.9805ZM941.566 90.9492H939.457V71.3789H941.566V90.9492ZM932.543 72.6562C933.457 72.6562 934.258 72.957 934.945 73.5586C935.633 74.1523 936.164 75.0078 936.539 76.125C936.922 77.2422 937.113 78.5547 937.113 80.0625C937.113 81.5547 936.922 82.8594 936.539 83.9766C936.164 85.0938 935.633 85.957 934.945 86.5664C934.258 87.168 933.457 87.4727 932.543 87.4805C931.637 87.4727 930.84 87.168 930.152 86.5664C929.465 85.957 928.934 85.0938 928.559 83.9766C928.191 82.8594 928.008 81.5547 928.008 80.0625C928.008 78.5547 928.191 77.2422 928.559 76.125C928.934 75.0078 929.465 74.1523 930.152 73.5586C930.84 72.957 931.637 72.6562 932.543 72.6562ZM932.543 74.7656C932.027 74.7578 931.586 74.9648 931.219 75.3867C930.852 75.8086 930.57 76.418 930.375 77.2148C930.18 78.0039 930.082 78.9531 930.082 80.0625C930.082 81.1562 930.18 82.1016 930.375 82.8984C930.57 83.6953 930.855 84.3047 931.23 84.7266C931.605 85.1406 932.043 85.3477 932.543 85.3477C933.051 85.3477 933.492 85.1406 933.867 84.7266C934.242 84.3047 934.531 83.6953 934.734 82.8984C934.938 82.1016 935.039 81.1562 935.039 80.0625C935.039 78.9531 934.938 78.0039 934.734 77.2148C934.531 76.418 934.242 75.8086 933.867 75.3867C933.492 74.9648 933.051 74.7578 932.543 74.7656ZM964.934 79.7695H959.133V77.9766H964.934V79.7695ZM955.664 76.3242C955.664 77.9336 955.422 79.4883 954.938 80.9883C954.453 82.4805 953.77 83.8047 952.887 84.9609C952.004 86.1172 950.98 87.0039 949.816 87.6211L948.398 85.8164C949.469 85.3086 950.414 84.5586 951.234 83.5664C952.062 82.5664 952.703 81.4336 953.156 80.168C953.609 78.9023 953.836 77.6211 953.836 76.3242V72.7266H955.664V76.3242ZM956.098 76.3242C956.098 77.6133 956.32 78.8672 956.766 80.0859C957.219 81.2969 957.848 82.375 958.652 83.3203C959.465 84.2578 960.395 84.9648 961.441 85.4414L960.105 87.2461C958.934 86.6445 957.91 85.793 957.035 84.6914C956.168 83.582 955.492 82.3086 955.008 80.8711C954.531 79.4258 954.293 77.9102 954.293 76.3242V72.7266H956.098V76.3242ZM966.035 92.0391H963.82V70.9805H966.035V92.0391ZM979.758 85.582H989.66V82.9805H991.875V91.7227H977.555V82.9805H979.758V85.582ZM989.66 89.918V87.3164H979.758V89.918H989.66ZM991.102 73.7227H977.52V71.9062H991.102V73.7227ZM994.336 81.2578H975.117V79.4531H994.336V81.2578ZM991.898 73.4883C991.898 74.668 991.859 75.7305 991.781 76.6758C991.711 77.6133 991.531 78.6992 991.242 79.9336L989.039 80.0156C989.234 79.1406 989.379 78.3242 989.473 77.5664C989.566 76.8008 989.625 76.1289 989.648 75.5508C989.672 74.9648 989.684 74.2773 989.684 73.4883V71.9062H991.898V73.4883ZM1003.08 74.0039C1003.08 75.332 1002.84 76.582 1002.35 77.7539C1001.87 78.918 1001.18 79.9336 1000.28 80.8008C999.387 81.668 998.332 82.3242 997.113 82.7695L995.977 81.0234C997.047 80.6328 997.977 80.082 998.766 79.3711C999.562 78.6602 1000.17 77.8398 1000.59 76.9102C1001.02 75.9727 1001.23 75.0039 1001.23 74.0039V72H1003.08V74.0039ZM1003.51 74.0039C1003.51 74.9805 1003.72 75.9102 1004.13 76.793C1004.55 77.668 1005.14 78.4414 1005.93 79.1133C1006.71 79.7852 1007.63 80.2969 1008.69 80.6484L1007.58 82.4062C1006.36 81.9844 1005.3 81.3633 1004.41 80.543C1003.52 79.7148 1002.84 78.7422 1002.35 77.625C1001.88 76.5078 1001.64 75.3008 1001.64 74.0039V72H1003.51V74.0039ZM1013.27 91.9805H1011.06V86.4141H999.047V84.5977H1013.27V91.9805ZM1013.27 83.6016H1011.06V70.9805H1013.27V83.6016ZM1039.97 86.4727H1037.74V71.0039H1039.97V86.4727ZM1038.13 79.1953H1033.39V77.3438H1038.13V79.1953ZM1033.52 72.5859C1033.52 74.3828 1033.12 76.0391 1032.33 77.5547C1031.54 79.0625 1030.41 80.375 1028.94 81.4922C1027.48 82.6016 1025.74 83.4844 1023.71 84.1406L1022.77 82.3594C1024.48 81.8047 1025.96 81.0938 1027.21 80.2266C1028.46 79.3516 1029.43 78.3438 1030.11 77.2031C1030.8 76.0547 1031.14 74.832 1031.14 73.5352V72.5859H1033.52ZM1032.59 74.4375H1023.84V72.5859H1032.59V74.4375ZM1040.51 91.5703H1026.43V89.7305H1040.51V91.5703ZM1028.7 90.6914H1026.43V84.8906H1028.7V90.6914ZM1050.06 72.4688C1051.16 72.4688 1052.14 72.6836 1053 73.1133C1053.86 73.5352 1054.53 74.1289 1055.02 74.8945C1055.51 75.6523 1055.75 76.5156 1055.75 77.4844C1055.75 78.4531 1055.51 79.3203 1055.02 80.0859C1054.53 80.8438 1053.86 81.4375 1053 81.8672C1052.14 82.2891 1051.16 82.5 1050.06 82.5C1048.96 82.5 1047.98 82.2891 1047.11 81.8672C1046.23 81.4375 1045.55 80.8438 1045.05 80.0859C1044.57 79.3203 1044.33 78.4531 1044.33 77.4844C1044.33 76.5156 1044.57 75.6523 1045.05 74.8945C1045.55 74.1289 1046.23 73.5352 1047.11 73.1133C1047.98 72.6836 1048.96 72.4688 1050.06 72.4688ZM1050.06 74.4141C1049.38 74.4141 1048.77 74.5391 1048.23 74.7891C1047.7 75.0391 1047.28 75.3984 1046.98 75.8672C1046.67 76.3359 1046.52 76.875 1046.52 77.4844C1046.52 78.0938 1046.67 78.6289 1046.98 79.0898C1047.28 79.5508 1047.7 79.9102 1048.23 80.168C1048.77 80.4258 1049.38 80.5547 1050.06 80.5547C1050.74 80.5547 1051.34 80.4258 1051.88 80.168C1052.41 79.9102 1052.83 79.5508 1053.13 79.0898C1053.43 78.6289 1053.59 78.0938 1053.59 77.4844C1053.59 76.875 1053.43 76.3359 1053.13 75.8672C1052.83 75.3984 1052.41 75.0391 1051.88 74.7891C1051.34 74.5391 1050.74 74.4141 1050.06 74.4141ZM1060.57 92.0391H1058.36V70.9805H1060.57V92.0391ZM1043.31 85.6641C1045.04 85.6562 1046.61 85.6367 1048.02 85.6055C1049.43 85.5742 1050.93 85.5117 1052.52 85.418C1054.11 85.3164 1055.62 85.1641 1057.03 84.9609L1057.2 86.5898C1055.73 86.8555 1054.21 87.0586 1052.64 87.1992C1051.07 87.332 1049.59 87.418 1048.21 87.457C1046.82 87.4961 1045.29 87.5156 1043.6 87.5156L1043.31 85.6641ZM1083.14 82.3359H1063.92V80.625H1083.14V82.3359ZM1080.77 88.4297H1068.45V90.7031H1066.22V86.9531H1078.57V85.4062H1066.2V83.7891H1080.77V88.4297ZM1081.43 91.7344H1066.22V90.1641H1081.43V91.7344ZM1080.71 76.0781H1068.6V78.1992H1066.39V74.6016H1078.49V73.1016H1066.34V71.5312H1080.71V76.0781ZM1081.09 79.2422H1066.39V77.6836H1081.09V79.2422ZM1107.05 86.7188H1104.83V71.0039H1107.05V86.7188ZM1110.11 79.6055H1106.37V77.7656H1110.11V79.6055ZM1103.07 75.2344H1090.57V73.4531H1103.07V75.2344ZM1096.83 76.2539C1097.83 76.2539 1098.71 76.418 1099.48 76.7461C1100.25 77.0742 1100.85 77.5391 1101.28 78.1406C1101.71 78.7422 1101.93 79.4375 1101.93 80.2266C1101.93 81.0078 1101.71 81.6953 1101.28 82.2891C1100.85 82.875 1100.25 83.332 1099.48 83.6602C1098.71 83.9883 1097.83 84.1523 1096.83 84.1523C1095.83 84.1523 1094.94 83.9883 1094.16 83.6602C1093.38 83.332 1092.78 82.875 1092.35 82.2891C1091.93 81.6953 1091.72 81.0078 1091.72 80.2266C1091.72 79.4375 1091.93 78.7422 1092.35 78.1406C1092.78 77.5391 1093.38 77.0742 1094.16 76.7461C1094.94 76.418 1095.83 76.2539 1096.83 76.2539ZM1096.83 77.9883C1096.24 77.9883 1095.72 78.0781 1095.27 78.2578C1094.82 78.4297 1094.47 78.6875 1094.23 79.0312C1093.98 79.375 1093.86 79.7734 1093.86 80.2266C1093.86 80.6797 1093.98 81.0703 1094.23 81.3984C1094.47 81.7266 1094.82 81.9805 1095.27 82.1602C1095.72 82.332 1096.24 82.418 1096.83 82.418C1097.41 82.418 1097.93 82.332 1098.39 82.1602C1098.85 81.9805 1099.2 81.7266 1099.45 81.3984C1099.7 81.0703 1099.83 80.6797 1099.83 80.2266C1099.83 79.7734 1099.7 79.375 1099.45 79.0312C1099.2 78.6875 1098.85 78.4297 1098.39 78.2578C1097.93 78.0781 1097.41 77.9883 1096.83 77.9883ZM1097.94 74.3555H1095.73V70.9922H1097.94V74.3555ZM1107.94 91.5703H1093.75V89.7305H1107.94V91.5703ZM1095.95 90.4922H1093.75V85.4883H1095.95V90.4922ZM1127.19 78.6328H1121.31V76.793H1127.19V78.6328ZM1128.8 86.5312H1126.57V71.0039H1128.8V86.5312ZM1129.27 91.5703H1115.07V89.7305H1129.27V91.5703ZM1117.32 90.6914H1115.07V84.9961H1117.32V90.6914ZM1114.51 75.9492H1119.79V72.3984H1121.98V83.0391H1112.3V72.3984H1114.51V75.9492ZM1119.79 81.2344V77.6836H1114.51V81.2344H1119.79ZM1144.45 80.8477H1140.59V79.0312H1144.45V80.8477ZM1150.1 91.9805H1147.96V70.9805H1150.1V91.9805ZM1145.82 90.9492H1143.71V71.3789H1145.82V90.9492ZM1136.8 72.6562C1137.71 72.6562 1138.52 72.957 1139.2 73.5586C1139.89 74.1523 1140.42 75.0078 1140.8 76.125C1141.18 77.2422 1141.37 78.5547 1141.37 80.0625C1141.37 81.5547 1141.18 82.8594 1140.8 83.9766C1140.42 85.0938 1139.89 85.957 1139.2 86.5664C1138.52 87.168 1137.71 87.4727 1136.8 87.4805C1135.89 87.4727 1135.1 87.168 1134.41 86.5664C1133.72 85.957 1133.19 85.0938 1132.82 83.9766C1132.45 82.8594 1132.27 81.5547 1132.27 80.0625C1132.27 78.5547 1132.45 77.2422 1132.82 76.125C1133.19 75.0078 1133.72 74.1523 1134.41 73.5586C1135.1 72.957 1135.89 72.6562 1136.8 72.6562ZM1136.8 74.7656C1136.29 74.7578 1135.84 74.9648 1135.48 75.3867C1135.11 75.8086 1134.83 76.418 1134.63 77.2148C1134.44 78.0039 1134.34 78.9531 1134.34 80.0625C1134.34 81.1562 1134.44 82.1016 1134.63 82.8984C1134.83 83.6953 1135.11 84.3047 1135.49 84.7266C1135.86 85.1406 1136.3 85.3477 1136.8 85.3477C1137.31 85.3477 1137.75 85.1406 1138.12 84.7266C1138.5 84.3047 1138.79 83.6953 1138.99 82.8984C1139.2 82.1016 1139.3 81.1562 1139.3 80.0625C1139.3 78.9531 1139.2 78.0039 1138.99 77.2148C1138.79 76.418 1138.5 75.8086 1138.12 75.3867C1137.75 74.9648 1137.31 74.7578 1136.8 74.7656ZM1175.13 81.6094H1172.92V70.9805H1175.13V81.6094ZM1178.19 77.2266H1174.17V75.375H1178.19V77.2266ZM1175.13 87.8789H1163.79V90.8672H1161.6V86.2266H1172.92V84.3047H1161.56V82.5586H1175.13V87.8789ZM1175.86 91.7227H1161.6V89.9531H1175.86V91.7227ZM1164.47 71.707C1165.53 71.707 1166.48 71.9062 1167.32 72.3047C1168.15 72.7031 1168.8 73.2617 1169.27 73.9805C1169.75 74.6914 1169.99 75.4961 1169.99 76.3945C1169.99 77.3008 1169.75 78.1133 1169.27 78.832C1168.8 79.5508 1168.15 80.1094 1167.32 80.5078C1166.48 80.9062 1165.53 81.1055 1164.47 81.1055C1163.42 81.1055 1162.48 80.9023 1161.64 80.4961C1160.81 80.0898 1160.15 79.5312 1159.66 78.8203C1159.19 78.1094 1158.95 77.3008 1158.95 76.3945C1158.95 75.4961 1159.19 74.6914 1159.66 73.9805C1160.14 73.2617 1160.8 72.7031 1161.63 72.3047C1162.48 71.9062 1163.42 71.707 1164.47 71.707ZM1164.47 73.5586C1163.83 73.543 1163.25 73.6562 1162.75 73.8984C1162.24 74.1406 1161.84 74.4805 1161.55 74.918C1161.26 75.3477 1161.12 75.8398 1161.12 76.3945C1161.12 76.957 1161.26 77.4609 1161.55 77.9062C1161.84 78.3438 1162.24 78.6875 1162.75 78.9375C1163.25 79.1875 1163.83 79.3125 1164.47 79.3125C1165.11 79.3125 1165.68 79.1875 1166.19 78.9375C1166.7 78.6875 1167.1 78.3438 1167.39 77.9062C1167.68 77.4609 1167.82 76.957 1167.82 76.3945C1167.82 75.8398 1167.68 75.3477 1167.39 74.918C1167.1 74.4805 1166.7 74.1406 1166.19 73.8984C1165.68 73.6562 1165.11 73.543 1164.47 73.5586ZM1185.01 72.5625C1186.06 72.5625 1186.98 72.8672 1187.79 73.4766C1188.6 74.0859 1189.24 74.9453 1189.7 76.0547C1190.17 77.1641 1190.4 78.457 1190.4 79.9336C1190.4 81.418 1190.17 82.7148 1189.7 83.8242C1189.24 84.9336 1188.6 85.793 1187.79 86.4023C1186.98 87.0039 1186.05 87.3047 1185.01 87.3047C1183.97 87.3047 1183.04 87.0039 1182.22 86.4023C1181.41 85.793 1180.77 84.9336 1180.31 83.8242C1179.86 82.7148 1179.63 81.418 1179.63 79.9336C1179.63 78.457 1179.86 77.1641 1180.31 76.0547C1180.77 74.9453 1181.41 74.0859 1182.22 73.4766C1183.04 72.8672 1183.97 72.5625 1185.01 72.5625ZM1185.01 74.5547C1184.37 74.5547 1183.8 74.7734 1183.31 75.2109C1182.82 75.6484 1182.44 76.2734 1182.16 77.0859C1181.89 77.8906 1181.75 78.8398 1181.75 79.9336C1181.75 81.0195 1181.89 81.9688 1182.16 82.7812C1182.44 83.5938 1182.82 84.2188 1183.32 84.6562C1183.82 85.0859 1184.39 85.3008 1185.01 85.3008C1185.65 85.3008 1186.22 85.0859 1186.71 84.6562C1187.2 84.2188 1187.58 83.5938 1187.85 82.7812C1188.12 81.9688 1188.26 81.0195 1188.26 79.9336C1188.26 78.8398 1188.12 77.8906 1187.85 77.0859C1187.58 76.2734 1187.2 75.6484 1186.71 75.2109C1186.22 74.7734 1185.65 74.5547 1185.01 74.5547ZM1195.73 91.9805H1193.52V70.9805H1195.73V91.9805ZM1199.12 81.1055H1195.23V79.207H1199.12V81.1055ZM1219.34 89.3789H1200.12V87.5508H1219.34V89.3789ZM1210.77 88.0664H1208.59V82.6523H1210.77V88.0664ZM1204.55 76.043H1214.86V72.4219H1217.05V83.2383H1202.31V72.4219H1204.55V76.043ZM1214.86 81.4336V77.8359H1204.55V81.4336H1214.86ZM1233.14 80.2266H1229.2V78.3633H1233.14V80.2266ZM1226.85 76.8164C1226.85 78.3242 1226.66 79.7812 1226.27 81.1875C1225.9 82.5938 1225.34 83.8516 1224.61 84.9609C1223.88 86.0625 1222.99 86.9297 1221.96 87.5625L1220.57 85.8984C1221.53 85.3203 1222.35 84.5508 1223.04 83.5898C1223.73 82.6211 1224.24 81.5547 1224.59 80.3906C1224.94 79.2266 1225.11 78.0352 1225.11 76.8164V72.9023H1226.85V76.8164ZM1227.26 76.7227C1227.26 77.8867 1227.42 79.0234 1227.74 80.1328C1228.06 81.2344 1228.54 82.2461 1229.17 83.168C1229.81 84.0898 1230.58 84.8281 1231.48 85.3828L1230.23 87.0938C1229.22 86.4844 1228.36 85.6367 1227.67 84.5508C1226.97 83.457 1226.45 82.2422 1226.1 80.9062C1225.75 79.5703 1225.58 78.1758 1225.58 76.7227V72.9023H1227.26V76.7227ZM1238.93 91.9805H1236.79V70.9805H1238.93V91.9805ZM1234.57 90.9492H1232.47V71.3789H1234.57V90.9492ZM1248.4 87.9258H1246.21V81.7734H1248.4V87.9258ZM1256.23 87.9258H1253.99V81.7734H1256.23V87.9258ZM1260.82 89.3672H1241.6V87.5273H1260.82V89.3672ZM1251.18 72.1992C1252.68 72.1992 1254.01 72.4297 1255.18 72.8906C1256.36 73.3438 1257.27 73.9883 1257.93 74.8242C1258.59 75.6523 1258.92 76.6055 1258.92 77.6836C1258.92 78.7695 1258.59 79.7266 1257.93 80.5547C1257.27 81.375 1256.36 82.0156 1255.18 82.4766C1254.01 82.9297 1252.68 83.1562 1251.18 83.1562C1249.68 83.1562 1248.35 82.9297 1247.17 82.4766C1246 82.0156 1245.08 81.375 1244.41 80.5547C1243.75 79.7266 1243.42 78.7695 1243.42 77.6836C1243.42 76.6055 1243.75 75.6523 1244.41 74.8242C1245.08 73.9883 1246 73.3438 1247.17 72.8906C1248.35 72.4297 1249.68 72.1992 1251.18 72.1992ZM1251.18 74.0039C1250.08 73.9961 1249.11 74.1445 1248.27 74.4492C1247.43 74.7461 1246.78 75.1758 1246.3 75.7383C1245.83 76.293 1245.6 76.9414 1245.6 77.6836C1245.6 78.4258 1245.83 79.0781 1246.3 79.6406C1246.78 80.2031 1247.44 80.6406 1248.28 80.9531C1249.12 81.2656 1250.09 81.4219 1251.18 81.4219C1252.25 81.4219 1253.21 81.2656 1254.06 80.9531C1254.9 80.6406 1255.56 80.2031 1256.04 79.6406C1256.52 79.0781 1256.75 78.4258 1256.75 77.6836C1256.75 76.9414 1256.52 76.293 1256.04 75.7383C1255.57 75.1758 1254.91 74.7461 1254.07 74.4492C1253.23 74.1445 1252.26 73.9961 1251.18 74.0039ZM1266 85.125H1263.69L1263.47 73.0312H1266.21L1266 85.125ZM1264.84 90.1641C1264.55 90.1641 1264.28 90.0859 1264.02 89.9297C1263.76 89.7734 1263.56 89.5703 1263.41 89.3203C1263.26 89.0625 1263.19 88.7852 1263.19 88.4883C1263.19 88.1992 1263.26 87.9258 1263.41 87.668C1263.56 87.4102 1263.76 87.2109 1264.02 87.0703C1264.28 86.9219 1264.55 86.8477 1264.84 86.8477C1265.14 86.8477 1265.41 86.9219 1265.66 87.0703C1265.92 87.2109 1266.12 87.4102 1266.27 87.668C1266.43 87.9258 1266.5 88.1992 1266.5 88.4883C1266.5 88.7852 1266.43 89.0625 1266.27 89.3203C1266.12 89.5703 1265.92 89.7734 1265.66 89.9297C1265.41 90.0859 1265.14 90.1641 1264.84 90.1641Z" fill="#2684FF"/>
<mask id="mask1_589_857" style="mask-type:luminance" maskUnits="userSpaceOnUse" x="1240" y="-59" width="269" height="317">
<path d="M1509 -59H1240V257.198H1509V-59Z" fill="white"/>
</mask>
<g mask="url(#mask1_589_857)">
<path d="M1241.31 138.069C1250.47 205.835 1331.12 248.605 1400.53 248.652L1378.56 174.103C1348.39 174.103 1323.92 150.059 1323.85 120.354L1241.31 138.069Z" fill="url(#paint3_linear_589_857)" fill-opacity="0.5"/>
<path d="M1378.89 75.8688L1375.41 75.1636C1377.51 75.1873 1452.6 17.2765 1454.2 15.9362C1455.81 14.596 1453.89 70.6215 1454.2 68.5757C1457.99 41.921 1481.15 22.0954 1508.48 22.1183L1490.44 -58.9994C1425.11 -50.5924 1374.83 1.96155 1370.18 66.6895C1370.1 67.8658 1370.26 69.046 1370.66 70.1566C1371.06 71.2689 1371.69 72.2862 1372.51 73.1479C1373.33 74.0095 1374.31 74.6956 1375.41 75.1636C1376.51 75.6308 1377.7 75.8711 1378.89 75.8688ZM1494.15 77.928L1398.32 159.046C1397.39 159.851 1396.65 160.841 1396.14 161.95C1395.63 163.059 1395.37 164.263 1395.37 165.48C1395.37 166.698 1395.63 167.901 1396.14 169.01C1396.65 170.119 1397.39 171.11 1398.32 171.915L1494.15 253.162C1495.41 254.215 1496.96 254.89 1498.6 255.109C1500.24 255.327 1501.92 255.079 1503.42 254.395C1504.93 253.71 1506.2 252.617 1507.1 251.244C1507.99 249.871 1508.47 248.274 1508.48 246.642V84.4488C1508.47 82.8164 1507.99 81.2196 1507.1 79.8457C1506.2 78.4726 1504.93 77.3794 1503.42 76.6948C1501.92 76.0102 1500.24 75.7628 1498.6 75.9818C1496.96 76.1992 1495.41 76.875 1494.15 77.928Z" fill="#2684FF" fill-opacity="0.5"/>
<path d="M1240 119.065V120.353H1323.85C1323.92 90.6461 1366.03 -24.8164 1396.19 -24.8164C1327.85 -16.0462 1240.83 51.1933 1240 119.065Z" fill="url(#paint4_linear_589_857)" fill-opacity="0.5"/>
</g>
</g>
<defs>
<linearGradient id="paint0_linear_589_857" x1="1974.56" y1="-2496.39" x2="1974.56" y2="1089.44" gradientUnits="userSpaceOnUse">
<stop stop-color="#0052CC"/>
<stop offset="1" stop-color="#2684FF"/>
</linearGradient>
<linearGradient id="paint1_linear_589_857" x1="1986.92" y1="79.4339" x2="1986.92" y2="3665.23" gradientUnits="userSpaceOnUse">
<stop stop-color="#0052CC"/>
<stop offset="1" stop-color="#2684FF"/>
</linearGradient>
<linearGradient id="paint2_linear_589_857" x1="720.211" y1="81.5" x2="911" y2="81.5" gradientUnits="userSpaceOnUse">
<stop stop-color="#232F4F"/>
<stop offset="1" stop-color="#2E4469"/>
</linearGradient>
<linearGradient id="paint3_linear_589_857" x1="8105.93" y1="-13263.6" x2="8105.93" y2="5323.8" gradientUnits="userSpaceOnUse">
<stop stop-color="#0052CC"/>
<stop offset="1" stop-color="#2684FF"/>
</linearGradient>
<linearGradient id="paint4_linear_589_857" x1="8169.99" y1="88.3893" x2="8169.99" y2="18675.6" gradientUnits="userSpaceOnUse">
<stop stop-color="#0052CC"/>
<stop offset="1" stop-color="#2684FF"/>
</linearGradient>
<clipPath id="clip0_589_857">
<rect width="1920" height="164" fill="white"/>
</clipPath>
<clipPath id="clip1_589_857">
<rect width="261" height="61" fill="white" transform="translate(650 51)"/>
</clipPath>
</defs>
</svg>
