<svg width="158" height="107" viewBox="0 0 158 107" fill="none" xmlns="http://www.w3.org/2000/svg">
<mask id="mask0_630_666" style="mask-type:luminance" maskUnits="userSpaceOnUse" x="58" y="0" width="44" height="51">
<path d="M101.12 0H58.144V50.3529H101.12V0Z" fill="white"/>
</mask>
<g mask="url(#mask0_630_666)">
<path d="M58.3528 31.3821C59.817 42.1734 72.7008 48.9844 83.7909 48.9919L80.2799 37.1203C75.4608 37.1203 71.5512 33.2914 71.5396 28.561L58.3528 31.3821Z" fill="url(#paint0_linear_630_666)"/>
<path d="M80.334 21.4771L79.7779 21.3648C80.1136 21.3686 92.1101 12.1466 92.3658 11.9331C92.6218 11.7197 92.3156 20.6415 92.3658 20.3157C92.9701 16.0711 96.6703 12.9139 101.036 12.9176L98.1556 0C87.7179 1.33877 79.6842 9.70773 78.9424 20.0153C78.9288 20.2027 78.955 20.3906 79.0188 20.5675C79.0828 20.7446 79.1832 20.9066 79.3137 21.0438C79.4443 21.181 79.6024 21.2903 79.7779 21.3648C79.9534 21.4392 80.1428 21.4775 80.334 21.4771ZM98.7472 21.805L83.4377 34.7227C83.2895 34.8508 83.171 35.0084 83.0897 35.1852C83.0083 35.3618 82.9663 35.5535 82.9663 35.7472C82.9663 35.9412 83.0083 36.1328 83.0897 36.3094C83.171 36.486 83.2895 36.6438 83.4377 36.772L98.7472 49.7101C98.9495 49.8778 99.1963 49.9853 99.4587 50.0202C99.7211 50.0549 99.9882 50.0155 100.229 49.9065C100.469 49.7975 100.673 49.6234 100.816 49.4047C100.959 49.1861 101.036 48.9318 101.037 48.6718V22.8434C101.036 22.5835 100.959 22.3292 100.816 22.1104C100.673 21.8917 100.469 21.7176 100.229 21.6086C99.9882 21.4996 99.7213 21.4602 99.4589 21.4951C99.1963 21.5297 98.9495 21.6373 98.7472 21.805Z" fill="#2684FF"/>
<path d="M58.144 28.356V28.5611H71.5397C71.5511 23.8304 78.2787 5.4436 83.0977 5.4436C72.1789 6.84022 58.277 17.5478 58.144 28.356Z" fill="url(#paint1_linear_630_666)"/>
</g>
<path d="M22.2969 87.3724C22.2969 89.0441 22.0846 90.5648 21.6599 91.9344C21.2554 93.2839 20.6285 94.4521 19.779 95.439C18.9499 96.4259 17.8881 97.1812 16.5938 97.7048C15.2994 98.2285 13.7624 98.4904 11.9827 98.4904C10.2232 98.4904 8.68618 98.2285 7.37162 97.7048C6.07729 97.1812 5.00542 96.4259 4.15601 95.439C3.32683 94.4521 2.69988 93.2839 2.27518 91.9344C1.8707 90.5648 1.66846 89.0341 1.66846 87.3422C1.66846 85.1065 2.03249 83.1629 2.76055 81.5113C3.50884 79.8598 4.64138 78.5808 6.15819 77.6744C7.69521 76.748 9.64682 76.2847 12.013 76.2847C14.359 76.2847 16.2904 76.748 17.8072 77.6744C19.3442 78.5808 20.4768 79.8698 21.2048 81.5416C21.9329 83.1931 22.2969 85.1368 22.2969 87.3724ZM6.55255 87.3724C6.55255 88.8629 6.73457 90.1519 7.0986 91.2395C7.48286 92.3272 8.07946 93.163 8.88842 93.7471C9.69738 94.3111 10.7288 94.593 11.9827 94.593C13.277 94.593 14.3186 94.3111 15.1073 93.7471C15.9163 93.163 16.5028 92.3272 16.8668 91.2395C17.2308 90.1519 17.4128 88.8629 17.4128 87.3724C17.4128 85.1166 16.9982 83.3442 16.1691 82.0552C15.3399 80.7661 13.9545 80.1216 12.013 80.1216C10.7389 80.1216 9.69738 80.4137 8.88842 80.9977C8.07946 81.5818 7.48286 82.4177 7.0986 83.5053C6.73457 84.5728 6.55255 85.8618 6.55255 87.3724ZM45.6562 81.3905C47.5572 81.3905 48.9931 81.8638 49.9639 82.8104C50.9346 83.7571 51.42 85.2979 51.42 87.4329V98.1882H46.8696V88.5809C46.8696 87.312 46.6572 86.4057 46.2325 85.8618C45.8078 85.2979 45.1708 85.0159 44.3214 85.0159C43.1484 85.0159 42.3192 85.4489 41.8338 86.315C41.3484 87.1609 41.1058 88.3694 41.1058 89.9404V98.1882H36.525V88.5809C36.525 87.7551 36.434 87.0804 36.252 86.5567C36.07 86.033 35.797 85.6504 35.4329 85.4087C35.0689 85.1468 34.6037 85.0159 34.0375 85.0159C33.2083 85.0159 32.551 85.2274 32.0656 85.6504C31.6005 86.0733 31.2668 86.6876 31.0645 87.4933C30.8825 88.2989 30.7915 89.2858 30.7915 90.454V98.1882H26.2108V81.6926H29.7298L30.3972 83.8074H30.5488C30.8724 83.3039 31.2668 82.8709 31.7319 82.5083C32.2173 82.1458 32.7735 81.8739 33.4004 81.6926C34.0274 81.4912 34.7251 81.3905 35.4936 81.3905C36.7273 81.3905 37.7486 81.602 38.5575 82.0249C39.3867 82.4479 40.0339 83.0622 40.499 83.8679H40.6507C41.1968 83.0421 41.9046 82.4278 42.7742 82.0249C43.6439 81.602 44.6045 81.3905 45.6562 81.3905ZM71.0658 89.9102C71.0658 91.2798 70.8737 92.4984 70.4895 93.5658C70.1254 94.6333 69.5895 95.5296 68.8817 96.2547C68.194 96.9798 67.3547 97.5336 66.3638 97.9163C65.3728 98.299 64.2504 98.4904 62.9965 98.4904C61.8235 98.4904 60.7516 98.299 59.7809 97.9163C58.8101 97.5336 57.9708 96.9798 57.263 96.2547C56.5551 95.5296 55.999 94.6333 55.5945 93.5658C55.19 92.4984 54.9878 91.2798 54.9878 89.9102C54.9878 88.0774 55.3114 86.5265 55.9585 85.2576C56.6057 83.9887 57.536 83.032 58.7494 82.3875C59.9629 81.7228 61.4089 81.3905 63.0875 81.3905C64.6447 81.3905 66.02 81.7228 67.2132 82.3875C68.4064 83.032 69.3468 83.9887 70.0344 85.2576C70.722 86.5265 71.0658 88.0774 71.0658 89.9102ZM59.6595 89.9102C59.6595 90.9777 59.7707 91.8941 59.9932 92.6595C60.2359 93.4249 60.5999 94.0089 61.0853 94.4118C61.5909 94.8146 62.2482 95.016 63.0571 95.016C63.8459 95.016 64.4829 94.8146 64.9683 94.4118C65.4739 94.0089 65.8379 93.4249 66.0604 92.6595C66.2829 91.8941 66.3941 90.9777 66.3941 89.9102C66.3941 88.8226 66.2728 87.9062 66.0301 87.1609C65.8076 86.4157 65.4537 85.8518 64.9683 85.4691C64.4829 85.0663 63.8358 84.8649 63.0268 84.8649C61.8538 84.8649 60.9943 85.2979 60.4482 86.164C59.9224 87.03 59.6595 88.2788 59.6595 89.9102ZM94.1819 81.3905C96.0829 81.3905 97.5188 81.8638 98.4896 82.8104C99.4603 83.7571 99.9457 85.2979 99.9457 87.4329V98.1882H95.3953V88.5809C95.3953 87.312 95.183 86.4057 94.7583 85.8618C94.3336 85.2979 93.6965 85.0159 92.8471 85.0159C91.6741 85.0159 90.8449 85.4489 90.3595 86.315C89.8742 87.1609 89.6315 88.3694 89.6315 89.9404V98.1882H85.0507V88.5809C85.0507 87.7551 84.9597 87.0804 84.7777 86.5567C84.5957 86.033 84.3227 85.6504 83.9586 85.4087C83.5946 85.1468 83.1295 85.0159 82.5632 85.0159C81.734 85.0159 81.0767 85.2274 80.5913 85.6504C80.1262 86.0733 79.7925 86.6876 79.5903 87.4933C79.4082 88.2989 79.3172 89.2858 79.3172 90.454V98.1882H74.7365V81.6926H78.2555L78.9229 83.8074H79.0745C79.3981 83.3039 79.7925 82.8709 80.2577 82.5083C80.743 82.1458 81.2992 81.8739 81.9261 81.6926C82.5531 81.4912 83.2508 81.3905 84.0193 81.3905C85.253 81.3905 86.2743 81.602 87.0833 82.0249C87.9124 82.4479 88.5596 83.0622 89.0248 83.8679H89.1764C89.7225 83.0421 90.4303 82.4278 91.3 82.0249C92.1696 81.602 93.1302 81.3905 94.1819 81.3905ZM111.37 81.3905C112.908 81.3905 114.232 81.6825 115.345 82.2666C116.457 82.8306 117.306 83.6765 117.893 84.8044C118.499 85.9122 118.803 87.2717 118.803 88.883V91.0885H108.155C108.195 92.3372 108.58 93.3241 109.308 94.0492C110.036 94.7542 111.077 95.1066 112.432 95.1066C113.464 95.1066 114.404 95.0059 115.254 94.8045C116.103 94.6031 116.973 94.301 117.862 93.8982V97.3121C117.053 97.7149 116.194 98.007 115.284 98.1882C114.394 98.3897 113.282 98.4904 111.947 98.4904C110.309 98.4904 108.853 98.1882 107.578 97.584C106.325 96.9798 105.334 96.0533 104.606 94.8045C103.878 93.5356 103.513 91.9545 103.513 90.0613C103.513 88.1277 103.837 86.5265 104.484 85.2576C105.152 83.9686 106.072 83.0018 107.245 82.3573C108.438 81.7128 109.813 81.3905 111.37 81.3905ZM111.492 84.6232C110.582 84.6232 109.844 84.9152 109.277 85.4993C108.711 86.0632 108.377 86.9092 108.276 88.0371H114.525C114.525 87.3724 114.414 86.7883 114.192 86.2848C113.969 85.7813 113.625 85.3784 113.16 85.0763C112.715 84.7742 112.159 84.6232 111.492 84.6232ZM137.693 89.9102C137.693 91.2798 137.5 92.4984 137.116 93.5658C136.752 94.6333 136.216 95.5296 135.508 96.2547C134.821 96.9798 133.981 97.5336 132.99 97.9163C131.999 98.299 130.877 98.4904 129.623 98.4904C128.45 98.4904 127.378 98.299 126.408 97.9163C125.437 97.5336 124.597 96.9798 123.89 96.2547C123.182 95.5296 122.626 94.6333 122.221 93.5658C121.817 92.4984 121.614 91.2798 121.614 89.9102C121.614 88.0774 121.938 86.5265 122.585 85.2576C123.232 83.9887 124.163 83.032 125.376 82.3875C126.59 81.7228 128.036 81.3905 129.714 81.3905C131.271 81.3905 132.647 81.7228 133.84 82.3875C135.033 83.032 135.973 83.9887 136.661 85.2576C137.349 86.5265 137.693 88.0774 137.693 89.9102ZM126.286 89.9102C126.286 90.9777 126.397 91.8941 126.62 92.6595C126.863 93.4249 127.227 94.0089 127.712 94.4118C128.218 94.8146 128.875 95.016 129.684 95.016C130.473 95.016 131.11 94.8146 131.595 94.4118C132.101 94.0089 132.465 93.4249 132.687 92.6595C132.91 91.8941 133.021 90.9777 133.021 89.9102C133.021 88.8226 132.899 87.9062 132.657 87.1609C132.434 86.4157 132.08 85.8518 131.595 85.4691C131.11 85.0663 130.462 84.8649 129.654 84.8649C128.481 84.8649 127.621 85.2979 127.075 86.164C126.549 87.03 126.286 88.2788 126.286 89.9102ZM146.035 85.4993C146.035 86.1237 146.005 86.748 145.944 87.3724C145.903 87.9767 145.853 88.591 145.792 89.2153H145.853C146.055 88.9334 146.257 88.6514 146.46 88.3694C146.682 88.0874 146.905 87.8055 147.127 87.5235C147.35 87.2415 147.582 86.9696 147.825 86.7078L152.466 81.6926H157.563L150.98 88.8528L157.957 98.1882H152.739L147.976 91.5114L146.035 93.0522V98.1882H141.515V75.2273H146.035V85.4993Z" fill="url(#paint2_linear_630_666)"/>
<defs>
<linearGradient id="paint0_linear_630_666" x1="1155.06" y1="-2102.76" x2="1155.06" y2="857.184" gradientUnits="userSpaceOnUse">
<stop stop-color="#0052CC"/>
<stop offset="1" stop-color="#2684FF"/>
</linearGradient>
<linearGradient id="paint1_linear_630_666" x1="1165.29" y1="23.4711" x2="1165.29" y2="2983.4" gradientUnits="userSpaceOnUse">
<stop stop-color="#0052CC"/>
<stop offset="1" stop-color="#2684FF"/>
</linearGradient>
<linearGradient id="paint2_linear_630_666" x1="-2.30351e-05" y1="86.2294" x2="158" y2="86.2294" gradientUnits="userSpaceOnUse">
<stop stop-color="#232F4F"/>
<stop offset="1" stop-color="#2E4469"/>
</linearGradient>
</defs>
</svg>
