<svg width="40" height="40" viewBox="0 0 40 40" fill="none" xmlns="http://www.w3.org/2000/svg">
<path d="M28.7963 3.13247C29.1479 2.78096 29.6247 2.5835 30.1219 2.5835C30.6191 2.5835 31.0959 2.78096 31.4475 3.13247L36.9013 8.58622C37.2528 8.93783 37.4502 9.41466 37.4502 9.91185C37.4502 10.409 37.2528 10.8859 36.9013 11.2375L11.83 36.31L3.72375 28.2037L28.7963 3.13247Z" fill="url(#paint0_linear_591_1312)"/>
<path d="M28.7963 3.13247C29.1479 2.78096 29.6247 2.5835 30.1219 2.5835C30.6191 2.5835 31.0959 2.78096 31.4475 3.13247L36.9013 8.58622C37.2528 8.93783 37.4502 9.41466 37.4502 9.91185C37.4502 10.409 37.2528 10.8859 36.9013 11.2375L11.83 36.31L3.72375 28.2037L28.7963 3.13247Z" fill="url(#paint1_linear_591_1312)"/>
<path d="M28.7963 3.13247C29.1479 2.78096 29.6247 2.5835 30.1219 2.5835C30.6191 2.5835 31.0959 2.78096 31.4475 3.13247L36.9013 8.58622C37.2528 8.93783 37.4502 9.41466 37.4502 9.91185C37.4502 10.409 37.2528 10.8859 36.9013 11.2375L11.83 36.31L3.72375 28.2037L28.7963 3.13247Z" fill="url(#paint2_linear_591_1312)"/>
<path d="M28.7963 3.13247C29.1479 2.78096 29.6247 2.5835 30.1219 2.5835C30.6191 2.5835 31.0959 2.78096 31.4475 3.13247L36.9013 8.58622C37.2528 8.93783 37.4502 9.41466 37.4502 9.91185C37.4502 10.409 37.2528 10.8859 36.9013 11.2375L11.83 36.31L3.72375 28.2037L28.7963 3.13247Z" fill="url(#paint3_linear_591_1312)"/>
<path d="M2.54251 37.2274C2.539 37.2641 2.54369 37.3012 2.55622 37.336C2.56876 37.3707 2.58883 37.4022 2.61501 37.4283C2.64119 37.4543 2.67281 37.4743 2.70761 37.4867C2.7424 37.499 2.77951 37.5035 2.81626 37.4999L10.9913 36.7136C11.227 36.6913 11.4516 36.6024 11.6388 36.4574L11.83 36.3099L3.72501 28.2036L3.59876 28.3561C3.43959 28.5492 3.34204 28.7857 3.31876 29.0349L2.54251 37.2274Z" fill="url(#paint4_linear_591_1312)"/>
<path d="M2.54251 37.2274C2.539 37.2641 2.54369 37.3012 2.55622 37.336C2.56876 37.3707 2.58883 37.4022 2.61501 37.4283C2.64119 37.4543 2.67281 37.4743 2.70761 37.4867C2.7424 37.499 2.77951 37.5035 2.81626 37.4999L10.9913 36.7136C11.227 36.6913 11.4516 36.6024 11.6388 36.4574L11.83 36.3099L3.72501 28.2036L3.59876 28.3561C3.43959 28.5492 3.34204 28.7857 3.31876 29.0349L2.54251 37.2274Z" fill="url(#paint5_linear_591_1312)"/>
<path d="M2.54251 37.2274C2.539 37.2641 2.54369 37.3012 2.55622 37.336C2.56876 37.3707 2.58883 37.4022 2.61501 37.4283C2.64119 37.4543 2.67281 37.4743 2.70761 37.4867C2.7424 37.499 2.77951 37.5035 2.81626 37.4999L10.9913 36.7136C11.227 36.6913 11.4516 36.6024 11.6388 36.4574L11.83 36.3099L3.72501 28.2036L3.59876 28.3561C3.43959 28.5492 3.34204 28.7857 3.31876 29.0349L2.54251 37.2274Z" fill="url(#paint6_linear_591_1312)"/>
<path d="M32.925 15.215L36.9 11.2375C37.2515 10.8859 37.449 10.409 37.449 9.91185C37.449 9.41466 37.2515 8.93783 36.9 8.58622L31.4463 3.13247C31.0946 2.78096 30.6178 2.5835 30.1206 2.5835C29.6234 2.5835 29.1466 2.78096 28.795 3.13247L24.8175 7.10997L32.925 15.215Z" fill="url(#paint7_linear_591_1312)"/>
<path d="M32.925 15.215L36.9 11.2375C37.2515 10.8859 37.449 10.409 37.449 9.91185C37.449 9.41466 37.2515 8.93783 36.9 8.58622L31.4463 3.13247C31.0946 2.78096 30.6178 2.5835 30.1206 2.5835C29.6234 2.5835 29.1466 2.78096 28.795 3.13247L24.8175 7.10997L32.925 15.215Z" fill="url(#paint8_linear_591_1312)"/>
<path d="M32.925 15.215L36.9 11.2375C37.2515 10.8859 37.449 10.409 37.449 9.91185C37.449 9.41466 37.2515 8.93783 36.9 8.58622L31.4463 3.13247C31.0946 2.78096 30.6178 2.5835 30.1206 2.5835C29.6234 2.5835 29.1466 2.78096 28.795 3.13247L24.8175 7.10997L32.925 15.215Z" fill="url(#paint9_linear_591_1312)"/>
<path d="M20.8325 11.0961L24.82 7.10864L32.925 15.2149L28.9375 19.2024L20.8325 11.0961Z" fill="url(#paint10_linear_591_1312)"/>
<path d="M20.8325 11.0961L24.82 7.10864L32.925 15.2149L28.9375 19.2024L20.8325 11.0961Z" fill="url(#paint11_linear_591_1312)"/>
<path d="M2.81626 37.5C2.77951 37.5037 2.7424 37.4992 2.70761 37.4868C2.67281 37.4744 2.64119 37.4545 2.61501 37.4285C2.58883 37.4024 2.56876 37.3709 2.55622 37.3361C2.54369 37.3014 2.539 37.2643 2.54251 37.2275L2.81501 34.3525L5.68501 37.2238L2.81626 37.5Z" fill="url(#paint12_linear_591_1312)"/>
<defs>
<linearGradient id="paint0_linear_591_1312" x1="4.92772" y1="8.90717" x2="34.3686" y2="59.1142" gradientUnits="userSpaceOnUse">
<stop stop-color="#0052CC"/>
<stop offset="1" stop-color="#2684FF"/>
</linearGradient>
<linearGradient id="paint1_linear_591_1312" x1="4.92772" y1="8.90717" x2="34.3686" y2="59.1142" gradientUnits="userSpaceOnUse">
<stop stop-color="#0052CC"/>
<stop offset="1" stop-color="#2684FF"/>
</linearGradient>
<linearGradient id="paint2_linear_591_1312" x1="4.92772" y1="8.90717" x2="34.3686" y2="59.1142" gradientUnits="userSpaceOnUse">
<stop stop-color="#0052CC"/>
<stop offset="1" stop-color="#2684FF"/>
</linearGradient>
<linearGradient id="paint3_linear_591_1312" x1="4.92772" y1="8.90717" x2="34.3686" y2="59.1142" gradientUnits="userSpaceOnUse">
<stop stop-color="#0052CC"/>
<stop offset="1" stop-color="#2684FF"/>
</linearGradient>
<linearGradient id="paint4_linear_591_1312" x1="4.85876" y1="32.6174" x2="8.14001" y2="37.7736" gradientUnits="userSpaceOnUse">
<stop stop-color="#D8A587"/>
<stop offset="1" stop-color="#CE7A98"/>
</linearGradient>
<linearGradient id="paint5_linear_591_1312" x1="8.72501" y1="32.8524" x2="8.07126" y2="33.5149" gradientUnits="userSpaceOnUse">
<stop offset="0.207" stop-color="#FFC09F"/>
<stop offset="1" stop-color="#FCB196" stop-opacity="0"/>
</linearGradient>
<linearGradient id="paint6_linear_591_1312" x1="1.89001" y1="32.4211" x2="4.54626" y2="32.6561" gradientUnits="userSpaceOnUse">
<stop stop-color="#DEBCA3"/>
<stop offset="1" stop-color="#DEBCA3" stop-opacity="0"/>
</linearGradient>
<linearGradient id="paint7_linear_591_1312" x1="25.2684" y1="4.95188" x2="36.2948" y2="23.7558" gradientUnits="userSpaceOnUse">
<stop stop-color="#0052CC"/>
<stop offset="1" stop-color="#2684FF"/>
</linearGradient>
<linearGradient id="paint8_linear_591_1312" x1="25.2684" y1="4.95188" x2="36.2948" y2="23.7558" gradientUnits="userSpaceOnUse">
<stop stop-color="#0052CC"/>
<stop offset="1" stop-color="#2684FF"/>
</linearGradient>
<linearGradient id="paint9_linear_591_1312" x1="25.2684" y1="4.95188" x2="36.2948" y2="23.7558" gradientUnits="userSpaceOnUse">
<stop stop-color="#0052CC"/>
<stop offset="1" stop-color="#2684FF"/>
</linearGradient>
<linearGradient id="paint10_linear_591_1312" x1="22.905" y1="9.21864" x2="28.0613" y2="13.9061" gradientUnits="userSpaceOnUse">
<stop stop-color="#C5C4CB"/>
<stop offset="1" stop-color="#E8DEFA"/>
</linearGradient>
<linearGradient id="paint11_linear_591_1312" x1="31.03" y1="17.9686" x2="28.14" y2="15.1561" gradientUnits="userSpaceOnUse">
<stop stop-color="#C9B9E0"/>
<stop offset="1" stop-color="#C9B9E0" stop-opacity="0"/>
</linearGradient>
<linearGradient id="paint12_linear_591_1312" x1="2.78751" y1="35.6638" x2="4.11376" y2="37.5013" gradientUnits="userSpaceOnUse">
<stop stop-color="#461E49"/>
<stop offset="1" stop-color="#450F51"/>
</linearGradient>
</defs>
</svg>
